<mxfile host="app.diagrams.net" modified="2021-04-19T10:07:36.612Z" agent="5.0 (Macintosh; Intel Mac OS X 10_15_6) AppleWebKit/605.1.15 (KHTML, like Gecko) Version/14.0.3 Safari/605.1.15" etag="gSUSKbsZ9PgOqY32C-Xn" version="14.5.3" type="github">
  <diagram id="XrMNll2V08MRg5aVy4IJ" name="Page-1">
    <mxGraphModel dx="946" dy="620" grid="1" gridSize="10" guides="1" tooltips="1" connect="1" arrows="1" fold="1" page="1" pageScale="1" pageWidth="1169" pageHeight="827" math="0" shadow="0">
      <root>
        <mxCell id="0" />
        <mxCell id="1" parent="0" />
        <mxCell id="lzE5lrEmT5vTGxUpPzfk-20" value="4. Near Real-time data aggregation" style="fillColor=#dae8fc;strokeColor=#6c8ebf;dashed=0;verticalAlign=top;fontStyle=1;align=left;opacity=50;" vertex="1" parent="1">
          <mxGeometry x="562" y="510" width="590" height="300" as="geometry" />
        </mxCell>
        <mxCell id="lzE5lrEmT5vTGxUpPzfk-19" value="3. Data visualization" style="fillColor=#dae8fc;strokeColor=#6c8ebf;dashed=0;verticalAlign=top;fontStyle=1;align=left;opacity=50;" vertex="1" parent="1">
          <mxGeometry x="1140" y="110" width="630" height="450" as="geometry" />
        </mxCell>
        <mxCell id="lzE5lrEmT5vTGxUpPzfk-18" value="2. Batch data processing" style="fillColor=#dae8fc;strokeColor=#6c8ebf;dashed=0;verticalAlign=top;fontStyle=1;align=left;opacity=50;" vertex="1" parent="1">
          <mxGeometry x="829" y="249" width="180" height="190" as="geometry" />
        </mxCell>
        <mxCell id="lzE5lrEmT5vTGxUpPzfk-17" value="1. Streaming data collection" style="fillColor=#dae8fc;strokeColor=#6c8ebf;dashed=0;verticalAlign=top;fontStyle=1;align=left;opacity=50;" vertex="1" parent="1">
          <mxGeometry x="420" y="141" width="290" height="290" as="geometry" />
        </mxCell>
        <mxCell id="lzE5lrEmT5vTGxUpPzfk-12" value="partition by date, sort by time" style="fillColor=none;strokeColor=#5A6C86;dashed=1;verticalAlign=top;fontStyle=0;fontColor=#5A6C86;" vertex="1" parent="1">
          <mxGeometry x="742" y="624" width="390" height="160" as="geometry" />
        </mxCell>
        <mxCell id="7FsomHptHNGmvxsUci2X-1" value="users" style="outlineConnect=0;gradientColor=none;fontColor=#545B64;strokeColor=none;fillColor=#879196;dashed=0;verticalLabelPosition=bottom;verticalAlign=top;align=center;html=1;fontSize=12;fontStyle=0;aspect=fixed;shape=mxgraph.aws4.illustration_users;pointerEvents=1" parent="1" vertex="1">
          <mxGeometry x="100" y="470" width="100" height="100" as="geometry" />
        </mxCell>
        <mxCell id="7FsomHptHNGmvxsUci2X-2" value="Drivers" style="outlineConnect=0;gradientColor=none;fontColor=#545B64;strokeColor=none;fillColor=#879196;dashed=0;verticalLabelPosition=bottom;verticalAlign=top;align=center;html=1;fontSize=12;fontStyle=0;aspect=fixed;shape=mxgraph.aws4.illustration_users;pointerEvents=1" parent="1" vertex="1">
          <mxGeometry x="100" y="120" width="100" height="100" as="geometry" />
        </mxCell>
        <mxCell id="lzE5lrEmT5vTGxUpPzfk-8" style="edgeStyle=orthogonalEdgeStyle;rounded=0;orthogonalLoop=1;jettySize=auto;html=1;exitX=1;exitY=0.75;exitDx=0;exitDy=0;exitPerimeter=0;entryX=0;entryY=0.5;entryDx=0;entryDy=0;entryPerimeter=0;" edge="1" parent="1" source="7FsomHptHNGmvxsUci2X-3" target="lzE5lrEmT5vTGxUpPzfk-9">
          <mxGeometry relative="1" as="geometry">
            <mxPoint x="629" y="500" as="targetPoint" />
          </mxGeometry>
        </mxCell>
        <mxCell id="7FsomHptHNGmvxsUci2X-3" value="AWS Kinesis&lt;br&gt;Data Streams" style="points=[[0,0,0],[0.25,0,0],[0.5,0,0],[0.75,0,0],[1,0,0],[0,1,0],[0.25,1,0],[0.5,1,0],[0.75,1,0],[1,1,0],[0,0.25,0],[0,0.5,0],[0,0.75,0],[1,0.25,0],[1,0.5,0],[1,0.75,0]];outlineConnect=0;fontColor=#232F3E;gradientColor=#945DF2;gradientDirection=north;fillColor=#5A30B5;strokeColor=#ffffff;dashed=0;verticalLabelPosition=bottom;verticalAlign=top;align=center;html=1;fontSize=12;fontStyle=0;aspect=fixed;shape=mxgraph.aws4.resourceIcon;resIcon=mxgraph.aws4.kinesis_data_streams;" parent="1" vertex="1">
          <mxGeometry x="447" y="301.5" width="78" height="78" as="geometry" />
        </mxCell>
        <mxCell id="7FsomHptHNGmvxsUci2X-4" value="Mobile App" style="outlineConnect=0;gradientColor=none;fontColor=#545B64;strokeColor=none;fillColor=#879196;dashed=0;verticalLabelPosition=bottom;verticalAlign=top;align=center;html=1;fontSize=12;fontStyle=0;aspect=fixed;shape=mxgraph.aws4.illustration_notification;pointerEvents=1" parent="1" vertex="1">
          <mxGeometry x="282" y="300" width="100" height="81" as="geometry" />
        </mxCell>
        <mxCell id="7FsomHptHNGmvxsUci2X-10" value="" style="edgeStyle=orthogonalEdgeStyle;html=1;endArrow=block;elbow=vertical;startArrow=none;endFill=1;strokeColor=#545B64;rounded=0;" parent="1" source="7FsomHptHNGmvxsUci2X-2" target="7FsomHptHNGmvxsUci2X-4" edge="1">
          <mxGeometry width="100" relative="1" as="geometry">
            <mxPoint x="360" y="350" as="sourcePoint" />
            <mxPoint x="460" y="350" as="targetPoint" />
            <Array as="points">
              <mxPoint x="240" y="170" />
              <mxPoint x="240" y="341" />
            </Array>
          </mxGeometry>
        </mxCell>
        <mxCell id="7FsomHptHNGmvxsUci2X-11" value="" style="edgeStyle=orthogonalEdgeStyle;html=1;endArrow=block;elbow=vertical;startArrow=none;endFill=1;strokeColor=#545B64;rounded=0;" parent="1" source="7FsomHptHNGmvxsUci2X-1" target="7FsomHptHNGmvxsUci2X-4" edge="1">
          <mxGeometry width="100" relative="1" as="geometry">
            <mxPoint x="360" y="350" as="sourcePoint" />
            <mxPoint x="460" y="350" as="targetPoint" />
            <Array as="points">
              <mxPoint x="240" y="520" />
              <mxPoint x="240" y="341" />
            </Array>
          </mxGeometry>
        </mxCell>
        <mxCell id="7FsomHptHNGmvxsUci2X-13" value="L0: Raw Data" style="outlineConnect=0;fontColor=#232F3E;gradientColor=none;fillColor=#277116;strokeColor=none;dashed=0;verticalLabelPosition=bottom;verticalAlign=top;align=center;html=1;fontSize=12;fontStyle=0;aspect=fixed;pointerEvents=1;shape=mxgraph.aws4.bucket;" parent="1" vertex="1">
          <mxGeometry x="730" y="301.5" width="75" height="78" as="geometry" />
        </mxCell>
        <mxCell id="7FsomHptHNGmvxsUci2X-17" value="" style="edgeStyle=orthogonalEdgeStyle;html=1;endArrow=block;elbow=vertical;startArrow=none;endFill=1;strokeColor=#545B64;rounded=0;exitX=1;exitY=0.5;exitDx=0;exitDy=0;exitPerimeter=0;entryX=0;entryY=0.5;entryDx=0;entryDy=0;entryPerimeter=0;" parent="1" source="7FsomHptHNGmvxsUci2X-3" target="7FsomHptHNGmvxsUci2X-19" edge="1">
          <mxGeometry width="100" relative="1" as="geometry">
            <mxPoint x="697" y="550.5" as="sourcePoint" />
            <mxPoint x="587" y="340.5" as="targetPoint" />
          </mxGeometry>
        </mxCell>
        <mxCell id="7FsomHptHNGmvxsUci2X-19" value="AWS Kinesis&lt;br&gt;Data Firehose" style="points=[[0,0,0],[0.25,0,0],[0.5,0,0],[0.75,0,0],[1,0,0],[0,1,0],[0.25,1,0],[0.5,1,0],[0.75,1,0],[1,1,0],[0,0.25,0],[0,0.5,0],[0,0.75,0],[1,0.25,0],[1,0.5,0],[1,0.75,0]];outlineConnect=0;fontColor=#232F3E;gradientColor=#945DF2;gradientDirection=north;fillColor=#5A30B5;strokeColor=#ffffff;dashed=0;verticalLabelPosition=bottom;verticalAlign=top;align=center;html=1;fontSize=12;fontStyle=0;aspect=fixed;shape=mxgraph.aws4.resourceIcon;resIcon=mxgraph.aws4.kinesis_data_firehose;" parent="1" vertex="1">
          <mxGeometry x="590" y="301.5" width="78" height="78" as="geometry" />
        </mxCell>
        <mxCell id="7FsomHptHNGmvxsUci2X-20" value="" style="edgeStyle=orthogonalEdgeStyle;html=1;endArrow=block;elbow=vertical;startArrow=none;endFill=1;strokeColor=#545B64;rounded=0;entryX=0;entryY=0.5;entryDx=0;entryDy=0;entryPerimeter=0;" parent="1" source="7FsomHptHNGmvxsUci2X-4" target="7FsomHptHNGmvxsUci2X-3" edge="1">
          <mxGeometry width="100" relative="1" as="geometry">
            <mxPoint x="538" y="180" as="sourcePoint" />
            <mxPoint x="595" y="180" as="targetPoint" />
          </mxGeometry>
        </mxCell>
        <mxCell id="7FsomHptHNGmvxsUci2X-28" value="AWS Glue&lt;br&gt;Crawler" style="outlineConnect=0;fontColor=#232F3E;gradientColor=none;fillColor=#5A30B5;strokeColor=none;dashed=0;verticalLabelPosition=bottom;verticalAlign=top;align=center;html=1;fontSize=12;fontStyle=0;aspect=fixed;pointerEvents=1;shape=mxgraph.aws4.glue_crawlers;" parent="1" vertex="1">
          <mxGeometry x="1169" y="301" width="78" height="78" as="geometry" />
        </mxCell>
        <mxCell id="7FsomHptHNGmvxsUci2X-33" value="Amazon Redshift" style="points=[[0,0,0],[0.25,0,0],[0.5,0,0],[0.75,0,0],[1,0,0],[0,1,0],[0.25,1,0],[0.5,1,0],[0.75,1,0],[1,1,0],[0,0.25,0],[0,0.5,0],[0,0.75,0],[1,0.25,0],[1,0.5,0],[1,0.75,0]];outlineConnect=0;fontColor=#232F3E;gradientColor=#945DF2;gradientDirection=north;fillColor=#5A30B5;strokeColor=#ffffff;dashed=0;verticalLabelPosition=bottom;verticalAlign=top;align=center;html=1;fontSize=12;fontStyle=0;aspect=fixed;shape=mxgraph.aws4.resourceIcon;resIcon=mxgraph.aws4.redshift;" parent="1" vertex="1">
          <mxGeometry x="1474" y="301" width="78" height="78" as="geometry" />
        </mxCell>
        <mxCell id="7FsomHptHNGmvxsUci2X-34" value="Amazon Athena" style="points=[[0,0,0],[0.25,0,0],[0.5,0,0],[0.75,0,0],[1,0,0],[0,1,0],[0.25,1,0],[0.5,1,0],[0.75,1,0],[1,1,0],[0,0.25,0],[0,0.5,0],[0,0.75,0],[1,0.25,0],[1,0.5,0],[1,0.75,0]];outlineConnect=0;fontColor=#232F3E;gradientColor=#945DF2;gradientDirection=north;fillColor=#5A30B5;strokeColor=#ffffff;dashed=0;verticalLabelPosition=bottom;verticalAlign=top;align=center;html=1;fontSize=12;fontStyle=0;aspect=fixed;shape=mxgraph.aws4.resourceIcon;resIcon=mxgraph.aws4.athena;" parent="1" vertex="1">
          <mxGeometry x="1474" y="171" width="78" height="78" as="geometry" />
        </mxCell>
        <mxCell id="7FsomHptHNGmvxsUci2X-35" value="Amazon EMR" style="points=[[0,0,0],[0.25,0,0],[0.5,0,0],[0.75,0,0],[1,0,0],[0,1,0],[0.25,1,0],[0.5,1,0],[0.75,1,0],[1,1,0],[0,0.25,0],[0,0.5,0],[0,0.75,0],[1,0.25,0],[1,0.5,0],[1,0.75,0]];outlineConnect=0;fontColor=#232F3E;gradientColor=#945DF2;gradientDirection=north;fillColor=#5A30B5;strokeColor=#ffffff;dashed=0;verticalLabelPosition=bottom;verticalAlign=top;align=center;html=1;fontSize=12;fontStyle=0;aspect=fixed;shape=mxgraph.aws4.resourceIcon;resIcon=mxgraph.aws4.emr;" parent="1" vertex="1">
          <mxGeometry x="1474" y="431" width="78" height="78" as="geometry" />
        </mxCell>
        <mxCell id="7FsomHptHNGmvxsUci2X-36" value="Amazon QuickSight" style="points=[[0,0,0],[0.25,0,0],[0.5,0,0],[0.75,0,0],[1,0,0],[0,1,0],[0.25,1,0],[0.5,1,0],[0.75,1,0],[1,1,0],[0,0.25,0],[0,0.5,0],[0,0.75,0],[1,0.25,0],[1,0.5,0],[1,0.75,0]];outlineConnect=0;fontColor=#232F3E;gradientColor=#945DF2;gradientDirection=north;fillColor=#5A30B5;strokeColor=#ffffff;dashed=0;verticalLabelPosition=bottom;verticalAlign=top;align=center;html=1;fontSize=12;fontStyle=0;aspect=fixed;shape=mxgraph.aws4.resourceIcon;resIcon=mxgraph.aws4.quicksight;" parent="1" vertex="1">
          <mxGeometry x="1654" y="301" width="78" height="78" as="geometry" />
        </mxCell>
        <mxCell id="lzE5lrEmT5vTGxUpPzfk-3" value="" style="edgeStyle=orthogonalEdgeStyle;rounded=0;orthogonalLoop=1;jettySize=auto;html=1;" edge="1" parent="1" source="7FsomHptHNGmvxsUci2X-37" target="7FsomHptHNGmvxsUci2X-28">
          <mxGeometry relative="1" as="geometry" />
        </mxCell>
        <mxCell id="7FsomHptHNGmvxsUci2X-37" value="L-n: DataCube" style="outlineConnect=0;fontColor=#232F3E;gradientColor=none;fillColor=#277116;strokeColor=none;dashed=0;verticalLabelPosition=bottom;verticalAlign=top;align=center;html=1;fontSize=12;fontStyle=0;aspect=fixed;pointerEvents=1;shape=mxgraph.aws4.bucket;" parent="1" vertex="1">
          <mxGeometry x="1032" y="301" width="75" height="78" as="geometry" />
        </mxCell>
        <mxCell id="lzE5lrEmT5vTGxUpPzfk-4" value="" style="edgeStyle=orthogonalEdgeStyle;rounded=0;orthogonalLoop=1;jettySize=auto;html=1;" edge="1" parent="1" source="7FsomHptHNGmvxsUci2X-40" target="7FsomHptHNGmvxsUci2X-53">
          <mxGeometry relative="1" as="geometry" />
        </mxCell>
        <mxCell id="7FsomHptHNGmvxsUci2X-40" value="AWS Glue&lt;br&gt;Data Catalog" style="outlineConnect=0;fontColor=#232F3E;gradientColor=none;fillColor=#5A30B5;strokeColor=none;dashed=0;verticalLabelPosition=bottom;verticalAlign=top;align=center;html=1;fontSize=12;fontStyle=0;aspect=fixed;pointerEvents=1;shape=mxgraph.aws4.glue_data_catalog;" parent="1" vertex="1">
          <mxGeometry x="1309" y="301" width="72" height="78" as="geometry" />
        </mxCell>
        <mxCell id="7FsomHptHNGmvxsUci2X-42" value="" style="edgeStyle=orthogonalEdgeStyle;html=1;endArrow=block;elbow=vertical;startArrow=none;endFill=1;strokeColor=#545B64;rounded=0;exitX=1;exitY=0.5;exitDx=0;exitDy=0;exitPerimeter=0;" parent="1" source="7FsomHptHNGmvxsUci2X-19" target="7FsomHptHNGmvxsUci2X-13" edge="1">
          <mxGeometry width="100" relative="1" as="geometry">
            <mxPoint x="680" y="340.5" as="sourcePoint" />
            <mxPoint x="600" y="350.5" as="targetPoint" />
          </mxGeometry>
        </mxCell>
        <mxCell id="7FsomHptHNGmvxsUci2X-43" value="" style="edgeStyle=orthogonalEdgeStyle;html=1;endArrow=block;elbow=vertical;startArrow=none;endFill=1;strokeColor=#545B64;rounded=0;entryX=0;entryY=0.5;entryDx=0;entryDy=0;entryPerimeter=0;" parent="1" source="7FsomHptHNGmvxsUci2X-13" target="lzE5lrEmT5vTGxUpPzfk-2" edge="1">
          <mxGeometry width="100" relative="1" as="geometry">
            <mxPoint x="678" y="350.5" as="sourcePoint" />
            <mxPoint x="740" y="350.6" as="targetPoint" />
          </mxGeometry>
        </mxCell>
        <mxCell id="7FsomHptHNGmvxsUci2X-45" value="" style="edgeStyle=orthogonalEdgeStyle;html=1;endArrow=block;elbow=vertical;startArrow=none;endFill=1;strokeColor=#545B64;rounded=0;" parent="1" source="7FsomHptHNGmvxsUci2X-28" target="7FsomHptHNGmvxsUci2X-40" edge="1">
          <mxGeometry width="100" relative="1" as="geometry">
            <mxPoint x="1099" y="278.5" as="sourcePoint" />
            <mxPoint x="1179.3067792878446" y="188.5" as="targetPoint" />
          </mxGeometry>
        </mxCell>
        <mxCell id="7FsomHptHNGmvxsUci2X-49" value="" style="edgeStyle=orthogonalEdgeStyle;html=1;endArrow=block;elbow=vertical;startArrow=none;endFill=1;strokeColor=#545B64;rounded=0;exitX=1;exitY=0.5;exitDx=0;exitDy=0;exitPerimeter=0;" parent="1" source="lzE5lrEmT5vTGxUpPzfk-2" target="7FsomHptHNGmvxsUci2X-37" edge="1">
          <mxGeometry width="100" relative="1" as="geometry">
            <mxPoint x="1103" y="330" as="sourcePoint" />
            <mxPoint x="1020.1199999999999" y="350.5" as="targetPoint" />
          </mxGeometry>
        </mxCell>
        <mxCell id="7FsomHptHNGmvxsUci2X-51" value="With&lt;br&gt;Lambda Transformation" style="points=[[0,0,0],[0.25,0,0],[0.5,0,0],[0.75,0,0],[1,0,0],[0,1,0],[0.25,1,0],[0.5,1,0],[0.75,1,0],[1,1,0],[0,0.25,0],[0,0.5,0],[0,0.75,0],[1,0.25,0],[1,0.5,0],[1,0.75,0]];outlineConnect=0;fontColor=#232F3E;gradientColor=#F78E04;gradientDirection=north;fillColor=#D05C17;strokeColor=#ffffff;dashed=0;verticalLabelPosition=bottom;verticalAlign=top;align=center;html=1;fontSize=12;fontStyle=0;aspect=fixed;shape=mxgraph.aws4.resourceIcon;resIcon=mxgraph.aws4.lambda;" parent="1" vertex="1">
          <mxGeometry x="590" y="180" width="78" height="78" as="geometry" />
        </mxCell>
        <mxCell id="lzE5lrEmT5vTGxUpPzfk-5" value="" style="edgeStyle=orthogonalEdgeStyle;rounded=0;orthogonalLoop=1;jettySize=auto;html=1;" edge="1" parent="1" source="7FsomHptHNGmvxsUci2X-53" target="7FsomHptHNGmvxsUci2X-36">
          <mxGeometry relative="1" as="geometry" />
        </mxCell>
        <mxCell id="7FsomHptHNGmvxsUci2X-53" value="Multi-tier analyze engine" style="fillColor=none;strokeColor=#5A6C86;dashed=1;verticalAlign=top;fontStyle=0;fontColor=#5A6C86;" parent="1" vertex="1">
          <mxGeometry x="1422" y="135" width="182" height="410" as="geometry" />
        </mxCell>
        <mxCell id="lzE5lrEmT5vTGxUpPzfk-2" value="&lt;span style=&quot;color: rgb(90 , 108 , 134)&quot;&gt;AWS Glue workflow&lt;br&gt;(triggers, jobs, crawlers)&lt;/span&gt;" style="points=[[0,0,0],[0.25,0,0],[0.5,0,0],[0.75,0,0],[1,0,0],[0,1,0],[0.25,1,0],[0.5,1,0],[0.75,1,0],[1,1,0],[0,0.25,0],[0,0.5,0],[0,0.75,0],[1,0.25,0],[1,0.5,0],[1,0.75,0]];outlineConnect=0;fontColor=#232F3E;gradientColor=#945DF2;gradientDirection=north;fillColor=#5A30B5;strokeColor=#ffffff;dashed=0;verticalLabelPosition=bottom;verticalAlign=top;align=center;html=1;fontSize=12;fontStyle=0;aspect=fixed;shape=mxgraph.aws4.resourceIcon;resIcon=mxgraph.aws4.glue;" vertex="1" parent="1">
          <mxGeometry x="880" y="301.5" width="78" height="78" as="geometry" />
        </mxCell>
        <mxCell id="lzE5lrEmT5vTGxUpPzfk-7" value="DynamoDB" style="points=[[0,0,0],[0.25,0,0],[0.5,0,0],[0.75,0,0],[1,0,0],[0,1,0],[0.25,1,0],[0.5,1,0],[0.75,1,0],[1,1,0],[0,0.25,0],[0,0.5,0],[0,0.75,0],[1,0.25,0],[1,0.5,0],[1,0.75,0]];outlineConnect=0;fontColor=#232F3E;gradientColor=#4D72F3;gradientDirection=north;fillColor=#3334B9;strokeColor=#ffffff;dashed=0;verticalLabelPosition=bottom;verticalAlign=top;align=center;html=1;fontSize=12;fontStyle=0;aspect=fixed;shape=mxgraph.aws4.resourceIcon;resIcon=mxgraph.aws4.dynamodb;" vertex="1" parent="1">
          <mxGeometry x="898" y="520" width="78" height="78" as="geometry" />
        </mxCell>
        <mxCell id="lzE5lrEmT5vTGxUpPzfk-13" style="edgeStyle=orthogonalEdgeStyle;rounded=0;orthogonalLoop=1;jettySize=auto;html=1;exitX=1;exitY=0.5;exitDx=0;exitDy=0;exitPerimeter=0;entryX=0;entryY=0.5;entryDx=0;entryDy=0;" edge="1" parent="1" source="lzE5lrEmT5vTGxUpPzfk-9" target="lzE5lrEmT5vTGxUpPzfk-12">
          <mxGeometry relative="1" as="geometry" />
        </mxCell>
        <mxCell id="lzE5lrEmT5vTGxUpPzfk-9" value="time-series processing" style="points=[[0,0,0],[0.25,0,0],[0.5,0,0],[0.75,0,0],[1,0,0],[0,1,0],[0.25,1,0],[0.5,1,0],[0.75,1,0],[1,1,0],[0,0.25,0],[0,0.5,0],[0,0.75,0],[1,0.25,0],[1,0.5,0],[1,0.75,0]];outlineConnect=0;fontColor=#232F3E;gradientColor=#F78E04;gradientDirection=north;fillColor=#D05C17;strokeColor=#ffffff;dashed=0;verticalLabelPosition=bottom;verticalAlign=top;align=center;html=1;fontSize=12;fontStyle=0;aspect=fixed;shape=mxgraph.aws4.resourceIcon;resIcon=mxgraph.aws4.lambda;" vertex="1" parent="1">
          <mxGeometry x="592" y="665" width="78" height="78" as="geometry" />
        </mxCell>
        <mxCell id="lzE5lrEmT5vTGxUpPzfk-11" value="table: today(n)" style="outlineConnect=0;fontColor=#232F3E;gradientColor=none;fillColor=#3334B9;strokeColor=none;dashed=0;verticalLabelPosition=bottom;verticalAlign=top;align=center;html=1;fontSize=12;fontStyle=0;aspect=fixed;pointerEvents=1;shape=mxgraph.aws4.table;" vertex="1" parent="1">
          <mxGeometry x="775" y="665" width="78" height="78" as="geometry" />
        </mxCell>
        <mxCell id="lzE5lrEmT5vTGxUpPzfk-14" value="table: n-1" style="outlineConnect=0;fontColor=#232F3E;gradientColor=none;fillColor=#3334B9;strokeColor=none;dashed=0;verticalLabelPosition=bottom;verticalAlign=top;align=center;html=1;fontSize=12;fontStyle=0;aspect=fixed;pointerEvents=1;shape=mxgraph.aws4.table;" vertex="1" parent="1">
          <mxGeometry x="899" y="665" width="78" height="78" as="geometry" />
        </mxCell>
        <mxCell id="lzE5lrEmT5vTGxUpPzfk-15" value="table: n-2 ..." style="outlineConnect=0;fontColor=#232F3E;gradientColor=none;fillColor=#3334B9;strokeColor=none;dashed=0;verticalLabelPosition=bottom;verticalAlign=top;align=center;html=1;fontSize=12;fontStyle=0;aspect=fixed;pointerEvents=1;shape=mxgraph.aws4.table;" vertex="1" parent="1">
          <mxGeometry x="1021" y="665" width="78" height="78" as="geometry" />
        </mxCell>
      </root>
    </mxGraphModel>
  </diagram>
</mxfile>
